<svg fill="silver" viewBox="0 0 2960 2100" xmlns="http://www.w3.org/2000/svg">
  <rect stroke="white" stroke-width="1" fill="none" width="100%" height="100%"></rect>
  <!-- Parametes: v=0|1 -->
  <!-- Parametes: date=0000-00-00 -->
  <g transform="translate(2200,60)">
    <g id="calendar-table">
      <path d="M0 0 L700 0 L700 420 L0 420 Z" stroke="gray" stroke-width="2" fill="none" />
      <path d="M0 60 L700 60" stroke="gray" stroke-width="2" fill="none" />
      <path d="M0 120 L700 120" stroke="gray" stroke-width="2" fill="none" />
      <path d="M0 180 L700 180" stroke="gray" stroke-width="2" fill="none" />
      <path d="M0 240 L700 240" stroke="gray" stroke-width="2" fill="none" />
      <path d="M0 300 L700 300" stroke="gray" stroke-width="2" fill="none" />
      <path d="M0 360 L700 360" stroke="gray" stroke-width="2" fill="none" />
      <path d="M100 0 L100 420" stroke="gray" stroke-width="2" fill="none" />
      <path d="M200 0 L200 420" stroke="gray" stroke-width="2" fill="none" />
      <path d="M300 0 L300 420" stroke="gray" stroke-width="2" fill="none" />
      <path d="M400 0 L400 420" stroke="gray" stroke-width="2" fill="none" />
      <path d="M500 0 L500 420" stroke="gray" stroke-width="2" fill="none" />
      <path d="M600 0 L600 420" stroke="gray" stroke-width="2" fill="none" />
    </g>
    <g style="font-size:30px; font-family: verdana, 微软雅黑;">
      <text x="50" y="40" text-anchor="middle" fill="gray">日</text>
      <text x="150" y="40" text-anchor="middle" fill="gray">一</text>
      <text x="250" y="40" text-anchor="middle" fill="gray">二</text>
      <text x="350" y="40" text-anchor="middle" fill="gray">三</text>
      <text x="450" y="40" text-anchor="middle" fill="gray">四</text>
      <text x="550" y="40" text-anchor="middle" fill="gray">五</text>
      <text x="650" y="40" text-anchor="middle" fill="gray">六</text>
    </g>
    <g style="font-size:30px; font-family: verdana;">
      <text text-anchor="middle" x="150" y="100" fill="gray" >1</text>
      <text text-anchor="middle" x="250" y="100" fill="gray" >2</text>
      <text text-anchor="middle" x="350" y="100" fill="gray" >3</text>
      <text text-anchor="middle" x="450" y="100" fill="gray" >4</text>
      <text text-anchor="middle" x="550" y="100" fill="gray" >5</text>
      <text text-anchor="middle" x="650" y="100" fill="gray" >6</text>
      <text text-anchor="middle" x="50" y="160" fill="gray" >7</text>
      <text text-anchor="middle" x="150" y="160" fill="gray" >8</text>
      <text text-anchor="middle" x="250" y="160" fill="gray" >9</text>
      <text text-anchor="middle" x="350" y="160" fill="gray" >10</text>
      <text text-anchor="middle" x="450" y="160" style="fill: black; font-weight: bold;" >11</text>
      <text text-anchor="middle" x="550" y="160" fill="gray" >12</text>
      <text text-anchor="middle" x="650" y="160" fill="gray" >13</text>
      <text text-anchor="middle" x="50" y="220" fill="gray" >14</text>
      <text text-anchor="middle" x="150" y="220" fill="gray" >15</text>
      <text text-anchor="middle" x="250" y="220" fill="gray" >16</text>
      <text text-anchor="middle" x="350" y="220" fill="gray" >17</text>
      <text text-anchor="middle" x="450" y="220" fill="gray" >18</text>
      <text text-anchor="middle" x="550" y="220" fill="gray" >19</text>
      <text text-anchor="middle" x="650" y="220" fill="gray" >20</text>
      <text text-anchor="middle" x="50" y="280" fill="gray" >21</text>
      <text text-anchor="middle" x="150" y="280" fill="gray" >22</text>
      <text text-anchor="middle" x="250" y="280" fill="gray" >23</text>
      <text text-anchor="middle" x="350" y="280" fill="gray" >24</text>
      <text text-anchor="middle" x="450" y="280" fill="gray" >25</text>
      <text text-anchor="middle" x="550" y="280" fill="gray" >26</text>
      <text text-anchor="middle" x="650" y="280" fill="gray" >27</text>
      <text text-anchor="middle" x="50" y="340" fill="gray" >28</text>
      <text text-anchor="middle" x="150" y="340" fill="gray" >29</text>
      <text text-anchor="middle" x="250" y="340" fill="gray" >30</text>
      <text text-anchor="middle" x="350" y="340" fill="gray" >31</text>
    </g>
  </g>
  <g transform="translate(60,60)" style="font-size:30px; font-family: verdana;">
    <rect stroke="gray" stroke-width="2" fill="none" width="320" height="120"></rect>
    <rect y="120" stroke="gray" stroke-width="2" fill="none" width="320" height="300"></rect>
    <text x="100" y="90" text-anchor="middle" style="font-size: 2.5em;" fill="gray">03</text>
    <text x="220" y="90" text-anchor="middle" fill="gray">/ 2021</text>
    <text x="160" y="340" text-anchor="middle" style="font-size: 6em;" fill="gray">11</text>
  </g>
  <!-- Parametes: border=8,8 -->
  <path d="M440 60 L2140 60 L2140 480 L440 480 Z" stroke-dasharray="8,8" stroke="gray" stroke-width="2" fill="none" />
  <path d="M30 540 L2930 540" stroke="gray" stroke-width="2" fill="none" />
  <g class="lines">
    <path d="M30 700 L2930 700" stroke="gray" stroke-width="2" fill="none" />
    <path d="M30 800 L2930 800" stroke="gray" stroke-width="2" fill="none" />
    <path d="M30 900 L2930 900" stroke="gray" stroke-width="2" fill="none" />
    <path d="M30 1000 L2930 1000" stroke="gray" stroke-width="2" fill="none" />
    <path d="M30 1100 L2930 1100" stroke="gray" stroke-width="2" fill="none" />
    <path d="M30 1200 L2930 1200" stroke="gray" stroke-width="2" fill="none" />
    <path d="M30 1300 L2930 1300" stroke="gray" stroke-width="2" fill="none" />
    <path d="M30 1400 L2930 1400" stroke="gray" stroke-width="2" fill="none" />
    <path d="M30 1500 L2930 1500" stroke="gray" stroke-width="2" fill="none" />
    <path d="M30 1600 L2930 1600" stroke="gray" stroke-width="2" fill="none" />
    <path d="M30 1700 L2930 1700" stroke="gray" stroke-width="2" fill="none" />
    <path d="M30 1800 L2930 1800" stroke="gray" stroke-width="2" fill="none" />
    <path d="M30 1900 L2930 1900" stroke="gray" stroke-width="2" fill="none" />
  </g>
  <path d="M2240 2020 L2840 2020" stroke="gray" stroke-width="2" fill="none" />
</svg>

